<?xml version="1.0" encoding="utf-8" ?>
<svg baseProfile="full" height="100%" version="1.1" width="100%" xmlns="http://www.w3.org/2000/svg" xmlns:ev="http://www.w3.org/2001/xml-events" xmlns:xlink="http://www.w3.org/1999/xlink"><defs /><line stroke="rgb(0%,0%,0%)" x1="735.0" x2="734.0" y1="29.0" y2="30.0" /><line stroke="rgb(0%,0%,0%)" x1="734.0" x2="716.0" y1="30.0" y2="30.0" /><line stroke="rgb(0%,0%,0%)" x1="716.0" x2="716.0" y1="30.0" y2="31.0" /><line stroke="rgb(0%,0%,0%)" x1="716.0" x2="715.0" y1="31.0" y2="32.0" /><line stroke="rgb(0%,0%,0%)" x1="715.0" x2="651.0" y1="32.0" y2="32.0" /><line stroke="rgb(0%,0%,0%)" x1="651.0" x2="651.0" y1="32.0" y2="34.0" /><line stroke="rgb(0%,0%,0%)" x1="651.0" x2="650.0" y1="34.0" y2="35.0" /><line stroke="rgb(0%,0%,0%)" x1="650.0" x2="488.0" y1="35.0" y2="35.0" /><line stroke="rgb(0%,0%,0%)" x1="488.0" x2="487.0" y1="35.0" y2="36.0" /><line stroke="rgb(0%,0%,0%)" x1="487.0" x2="487.0" y1="36.0" y2="37.0" /><line stroke="rgb(0%,0%,0%)" x1="487.0" x2="486.0" y1="37.0" y2="38.0" /><line stroke="rgb(0%,0%,0%)" x1="486.0" x2="323.0" y1="38.0" y2="38.0" /><line stroke="rgb(0%,0%,0%)" x1="323.0" x2="322.0" y1="38.0" y2="39.0" /><line stroke="rgb(0%,0%,0%)" x1="322.0" x2="160.0" y1="39.0" y2="39.0" /><line stroke="rgb(0%,0%,0%)" x1="160.0" x2="160.0" y1="39.0" y2="41.0" /><line stroke="rgb(0%,0%,0%)" x1="160.0" x2="159.0" y1="41.0" y2="42.0" /><line stroke="rgb(0%,0%,0%)" x1="159.0" x2="82.0" y1="42.0" y2="42.0" /><line stroke="rgb(0%,0%,0%)" x1="82.0" x2="82.0" y1="42.0" y2="43.0" /><line stroke="rgb(0%,0%,0%)" x1="82.0" x2="81.0" y1="43.0" y2="44.0" /><line stroke="rgb(0%,0%,0%)" x1="81.0" x2="75.0" y1="44.0" y2="44.0" /><line stroke="rgb(0%,0%,0%)" x1="75.0" x2="74.0" y1="44.0" y2="45.0" /><line stroke="rgb(0%,0%,0%)" x1="74.0" x2="66.0" y1="45.0" y2="45.0" /><line stroke="rgb(0%,0%,0%)" x1="66.0" x2="65.0" y1="45.0" y2="44.0" /><line stroke="rgb(0%,0%,0%)" x1="65.0" x2="65.0" y1="44.0" y2="43.0" /><line stroke="rgb(0%,0%,0%)" x1="65.0" x2="64.0" y1="43.0" y2="42.0" /><line stroke="rgb(0%,0%,0%)" x1="64.0" x2="57.0" y1="42.0" y2="42.0" /><line stroke="rgb(0%,0%,0%)" x1="57.0" x2="57.0" y1="42.0" y2="44.0" /><line stroke="rgb(0%,0%,0%)" x1="57.0" x2="56.0" y1="44.0" y2="45.0" /><line stroke="rgb(0%,0%,0%)" x1="56.0" x2="7.0" y1="45.0" y2="45.0" /><line stroke="rgb(0%,0%,0%)" x1="7.0" x2="7.0" y1="45.0" y2="91.0" /><line stroke="rgb(0%,0%,0%)" x1="7.0" x2="8.0" y1="91.0" y2="92.0" /><line stroke="rgb(0%,0%,0%)" x1="8.0" x2="8.0" y1="92.0" y2="190.0" /><line stroke="rgb(0%,0%,0%)" x1="8.0" x2="10.0" y1="190.0" y2="190.0" /><line stroke="rgb(0%,0%,0%)" x1="10.0" x2="11.0" y1="190.0" y2="191.0" /><line stroke="rgb(0%,0%,0%)" x1="11.0" x2="11.0" y1="191.0" y2="193.0" /><line stroke="rgb(0%,0%,0%)" x1="11.0" x2="10.0" y1="193.0" y2="194.0" /><line stroke="rgb(0%,0%,0%)" x1="10.0" x2="8.0" y1="194.0" y2="194.0" /><line stroke="rgb(0%,0%,0%)" x1="8.0" x2="8.0" y1="194.0" y2="198.0" /><line stroke="rgb(0%,0%,0%)" x1="8.0" x2="10.0" y1="198.0" y2="198.0" /><line stroke="rgb(0%,0%,0%)" x1="10.0" x2="11.0" y1="198.0" y2="199.0" /><line stroke="rgb(0%,0%,0%)" x1="11.0" x2="11.0" y1="199.0" y2="204.0" /><line stroke="rgb(0%,0%,0%)" x1="11.0" x2="10.0" y1="204.0" y2="205.0" /><line stroke="rgb(0%,0%,0%)" x1="10.0" x2="8.0" y1="205.0" y2="205.0" /><line stroke="rgb(0%,0%,0%)" x1="8.0" x2="8.0" y1="205.0" y2="209.0" /><line stroke="rgb(0%,0%,0%)" x1="8.0" x2="10.0" y1="209.0" y2="209.0" /><line stroke="rgb(0%,0%,0%)" x1="10.0" x2="11.0" y1="209.0" y2="210.0" /><line stroke="rgb(0%,0%,0%)" x1="11.0" x2="11.0" y1="210.0" y2="243.0" /><line stroke="rgb(0%,0%,0%)" x1="11.0" x2="10.0" y1="243.0" y2="244.0" /><line stroke="rgb(0%,0%,0%)" x1="10.0" x2="8.0" y1="244.0" y2="244.0" /><line stroke="rgb(0%,0%,0%)" x1="8.0" x2="8.0" y1="244.0" y2="450.0" /><line stroke="rgb(0%,0%,0%)" x1="8.0" x2="9.0" y1="450.0" y2="451.0" /><line stroke="rgb(0%,0%,0%)" x1="9.0" x2="9.0" y1="451.0" y2="542.0" /><line stroke="rgb(0%,0%,0%)" x1="9.0" x2="11.0" y1="542.0" y2="542.0" /><line stroke="rgb(0%,0%,0%)" x1="11.0" x2="12.0" y1="542.0" y2="543.0" /><line stroke="rgb(0%,0%,0%)" x1="12.0" x2="12.0" y1="543.0" y2="886.0" /><line stroke="rgb(0%,0%,0%)" x1="12.0" x2="13.0" y1="886.0" y2="887.0" /><line stroke="rgb(0%,0%,0%)" x1="13.0" x2="13.0" y1="887.0" y2="969.0" /><line stroke="rgb(0%,0%,0%)" x1="13.0" x2="15.0" y1="969.0" y2="969.0" /><line stroke="rgb(0%,0%,0%)" x1="15.0" x2="16.0" y1="969.0" y2="970.0" /><line stroke="rgb(0%,0%,0%)" x1="16.0" x2="16.0" y1="970.0" y2="1047.0" /><line stroke="rgb(0%,0%,0%)" x1="16.0" x2="31.0" y1="1047.0" y2="1047.0" /><line stroke="rgb(0%,0%,0%)" x1="31.0" x2="32.0" y1="1047.0" y2="1048.0" /><line stroke="rgb(0%,0%,0%)" x1="32.0" x2="32.0" y1="1048.0" y2="1049.0" /><line stroke="rgb(0%,0%,0%)" x1="32.0" x2="33.0" y1="1049.0" y2="1050.0" /><line stroke="rgb(0%,0%,0%)" x1="33.0" x2="40.0" y1="1050.0" y2="1050.0" /><line stroke="rgb(0%,0%,0%)" x1="40.0" x2="41.0" y1="1050.0" y2="1049.0" /><line stroke="rgb(0%,0%,0%)" x1="41.0" x2="101.0" y1="1049.0" y2="1049.0" /><line stroke="rgb(0%,0%,0%)" x1="101.0" x2="102.0" y1="1049.0" y2="1048.0" /><line stroke="rgb(0%,0%,0%)" x1="102.0" x2="161.0" y1="1048.0" y2="1048.0" /><line stroke="rgb(0%,0%,0%)" x1="161.0" x2="162.0" y1="1048.0" y2="1047.0" /><line stroke="rgb(0%,0%,0%)" x1="162.0" x2="222.0" y1="1047.0" y2="1047.0" /><line stroke="rgb(0%,0%,0%)" x1="222.0" x2="223.0" y1="1047.0" y2="1046.0" /><line stroke="rgb(0%,0%,0%)" x1="223.0" x2="282.0" y1="1046.0" y2="1046.0" /><line stroke="rgb(0%,0%,0%)" x1="282.0" x2="283.0" y1="1046.0" y2="1045.0" /><line stroke="rgb(0%,0%,0%)" x1="283.0" x2="343.0" y1="1045.0" y2="1045.0" /><line stroke="rgb(0%,0%,0%)" x1="343.0" x2="344.0" y1="1045.0" y2="1044.0" /><line stroke="rgb(0%,0%,0%)" x1="344.0" x2="404.0" y1="1044.0" y2="1044.0" /><line stroke="rgb(0%,0%,0%)" x1="404.0" x2="405.0" y1="1044.0" y2="1043.0" /><line stroke="rgb(0%,0%,0%)" x1="405.0" x2="447.0" y1="1043.0" y2="1043.0" /><line stroke="rgb(0%,0%,0%)" x1="447.0" x2="447.0" y1="1043.0" y2="1041.0" /><line stroke="rgb(0%,0%,0%)" x1="447.0" x2="448.0" y1="1041.0" y2="1040.0" /><line stroke="rgb(0%,0%,0%)" x1="448.0" x2="478.0" y1="1040.0" y2="1040.0" /><line stroke="rgb(0%,0%,0%)" x1="478.0" x2="479.0" y1="1040.0" y2="1039.0" /><line stroke="rgb(0%,0%,0%)" x1="479.0" x2="539.0" y1="1039.0" y2="1039.0" /><line stroke="rgb(0%,0%,0%)" x1="539.0" x2="540.0" y1="1039.0" y2="1038.0" /><line stroke="rgb(0%,0%,0%)" x1="540.0" x2="600.0" y1="1038.0" y2="1038.0" /><line stroke="rgb(0%,0%,0%)" x1="600.0" x2="601.0" y1="1038.0" y2="1037.0" /><line stroke="rgb(0%,0%,0%)" x1="601.0" x2="660.0" y1="1037.0" y2="1037.0" /><line stroke="rgb(0%,0%,0%)" x1="660.0" x2="661.0" y1="1037.0" y2="1036.0" /><line stroke="rgb(0%,0%,0%)" x1="661.0" x2="721.0" y1="1036.0" y2="1036.0" /><line stroke="rgb(0%,0%,0%)" x1="721.0" x2="722.0" y1="1036.0" y2="1035.0" /><line stroke="rgb(0%,0%,0%)" x1="722.0" x2="778.0" y1="1035.0" y2="1035.0" /><line stroke="rgb(0%,0%,0%)" x1="778.0" x2="779.0" y1="1035.0" y2="1034.0" /><line stroke="rgb(0%,0%,0%)" x1="779.0" x2="780.0" y1="1034.0" y2="1034.0" /><line stroke="rgb(0%,0%,0%)" x1="780.0" x2="781.0" y1="1034.0" y2="1033.0" /><line stroke="rgb(0%,0%,0%)" x1="781.0" x2="781.0" y1="1033.0" y2="999.0" /><line stroke="rgb(0%,0%,0%)" x1="781.0" x2="780.0" y1="999.0" y2="998.0" /><line stroke="rgb(0%,0%,0%)" x1="780.0" x2="780.0" y1="998.0" y2="831.0" /><line stroke="rgb(0%,0%,0%)" x1="780.0" x2="779.0" y1="831.0" y2="830.0" /><line stroke="rgb(0%,0%,0%)" x1="779.0" x2="779.0" y1="830.0" y2="662.0" /><line stroke="rgb(0%,0%,0%)" x1="779.0" x2="778.0" y1="662.0" y2="661.0" /><line stroke="rgb(0%,0%,0%)" x1="778.0" x2="778.0" y1="661.0" y2="533.0" /><line stroke="rgb(0%,0%,0%)" x1="778.0" x2="776.0" y1="533.0" y2="533.0" /><line stroke="rgb(0%,0%,0%)" x1="776.0" x2="775.0" y1="533.0" y2="532.0" /><line stroke="rgb(0%,0%,0%)" x1="775.0" x2="775.0" y1="532.0" y2="530.0" /><line stroke="rgb(0%,0%,0%)" x1="775.0" x2="776.0" y1="530.0" y2="529.0" /><line stroke="rgb(0%,0%,0%)" x1="776.0" x2="780.0" y1="529.0" y2="529.0" /><line stroke="rgb(0%,0%,0%)" x1="780.0" x2="780.0" y1="529.0" y2="445.0" /><line stroke="rgb(0%,0%,0%)" x1="780.0" x2="778.0" y1="445.0" y2="445.0" /><line stroke="rgb(0%,0%,0%)" x1="778.0" x2="777.0" y1="445.0" y2="444.0" /><line stroke="rgb(0%,0%,0%)" x1="777.0" x2="777.0" y1="444.0" y2="326.0" /><line stroke="rgb(0%,0%,0%)" x1="777.0" x2="776.0" y1="326.0" y2="325.0" /><line stroke="rgb(0%,0%,0%)" x1="776.0" x2="776.0" y1="325.0" y2="311.0" /><line stroke="rgb(0%,0%,0%)" x1="776.0" x2="775.0" y1="311.0" y2="311.0" /><line stroke="rgb(0%,0%,0%)" x1="775.0" x2="774.0" y1="311.0" y2="310.0" /><line stroke="rgb(0%,0%,0%)" x1="774.0" x2="774.0" y1="310.0" y2="278.0" /><line stroke="rgb(0%,0%,0%)" x1="774.0" x2="773.0" y1="278.0" y2="277.0" /><line stroke="rgb(0%,0%,0%)" x1="773.0" x2="773.0" y1="277.0" y2="234.0" /><line stroke="rgb(0%,0%,0%)" x1="773.0" x2="772.0" y1="234.0" y2="234.0" /><line stroke="rgb(0%,0%,0%)" x1="772.0" x2="771.0" y1="234.0" y2="233.0" /><line stroke="rgb(0%,0%,0%)" x1="771.0" x2="771.0" y1="233.0" y2="230.0" /><line stroke="rgb(0%,0%,0%)" x1="771.0" x2="770.0" y1="230.0" y2="229.0" /><line stroke="rgb(0%,0%,0%)" x1="770.0" x2="770.0" y1="229.0" y2="188.0" /><line stroke="rgb(0%,0%,0%)" x1="770.0" x2="769.0" y1="188.0" y2="188.0" /><line stroke="rgb(0%,0%,0%)" x1="769.0" x2="768.0" y1="188.0" y2="187.0" /><line stroke="rgb(0%,0%,0%)" x1="768.0" x2="768.0" y1="187.0" y2="182.0" /><line stroke="rgb(0%,0%,0%)" x1="768.0" x2="767.0" y1="182.0" y2="181.0" /><line stroke="rgb(0%,0%,0%)" x1="767.0" x2="767.0" y1="181.0" y2="30.0" /><line stroke="rgb(0%,0%,0%)" x1="767.0" x2="766.0" y1="30.0" y2="30.0" /><line stroke="rgb(0%,0%,0%)" x1="766.0" x2="765.0" y1="30.0" y2="29.0" /><line stroke="rgb(0%,0%,0%)" x1="735.0" x2="765.0" y1="29.0" y2="29.0" /><line stroke="rgb(0%,0%,0%)" x1="725.0" x2="726.0" y1="530.0" y2="529.0" /><line stroke="rgb(0%,0%,0%)" x1="726.0" x2="735.0" y1="529.0" y2="529.0" /><line stroke="rgb(0%,0%,0%)" x1="735.0" x2="736.0" y1="529.0" y2="530.0" /><line stroke="rgb(0%,0%,0%)" x1="736.0" x2="735.0" y1="530.0" y2="531.0" /><line stroke="rgb(0%,0%,0%)" x1="735.0" x2="726.0" y1="531.0" y2="531.0" /><line stroke="rgb(0%,0%,0%)" x1="725.0" x2="726.0" y1="530.0" y2="531.0" /><line stroke="rgb(0%,0%,0%)" x1="634.0" x2="635.0" y1="235.0" y2="234.0" /><line stroke="rgb(0%,0%,0%)" x1="635.0" x2="703.0" y1="234.0" y2="234.0" /><line stroke="rgb(0%,0%,0%)" x1="703.0" x2="704.0" y1="234.0" y2="235.0" /><line stroke="rgb(0%,0%,0%)" x1="704.0" x2="704.0" y1="235.0" y2="346.0" /><line stroke="rgb(0%,0%,0%)" x1="704.0" x2="706.0" y1="346.0" y2="346.0" /><line stroke="rgb(0%,0%,0%)" x1="706.0" x2="707.0" y1="346.0" y2="347.0" /><line stroke="rgb(0%,0%,0%)" x1="707.0" x2="707.0" y1="347.0" y2="393.0" /><line stroke="rgb(0%,0%,0%)" x1="707.0" x2="706.0" y1="393.0" y2="394.0" /><line stroke="rgb(0%,0%,0%)" x1="706.0" x2="601.0" y1="394.0" y2="394.0" /><line stroke="rgb(0%,0%,0%)" x1="601.0" x2="601.0" y1="394.0" y2="396.0" /><line stroke="rgb(0%,0%,0%)" x1="601.0" x2="600.0" y1="396.0" y2="397.0" /><line stroke="rgb(0%,0%,0%)" x1="600.0" x2="568.0" y1="397.0" y2="397.0" /><line stroke="rgb(0%,0%,0%)" x1="568.0" x2="567.0" y1="397.0" y2="396.0" /><line stroke="rgb(0%,0%,0%)" x1="567.0" x2="567.0" y1="396.0" y2="352.0" /><line stroke="rgb(0%,0%,0%)" x1="567.0" x2="566.0" y1="352.0" y2="351.0" /><line stroke="rgb(0%,0%,0%)" x1="566.0" x2="566.0" y1="351.0" y2="350.0" /><line stroke="rgb(0%,0%,0%)" x1="566.0" x2="567.0" y1="350.0" y2="349.0" /><line stroke="rgb(0%,0%,0%)" x1="567.0" x2="567.0" y1="349.0" y2="343.0" /><line stroke="rgb(0%,0%,0%)" x1="567.0" x2="566.0" y1="343.0" y2="342.0" /><line stroke="rgb(0%,0%,0%)" x1="566.0" x2="565.0" y1="342.0" y2="342.0" /><line stroke="rgb(0%,0%,0%)" x1="565.0" x2="564.0" y1="342.0" y2="341.0" /><line stroke="rgb(0%,0%,0%)" x1="564.0" x2="564.0" y1="341.0" y2="252.0" /><line stroke="rgb(0%,0%,0%)" x1="564.0" x2="563.0" y1="252.0" y2="251.0" /><line stroke="rgb(0%,0%,0%)" x1="563.0" x2="563.0" y1="251.0" y2="238.0" /><line stroke="rgb(0%,0%,0%)" x1="563.0" x2="564.0" y1="238.0" y2="237.0" /><line stroke="rgb(0%,0%,0%)" x1="564.0" x2="634.0" y1="237.0" y2="237.0" /><line stroke="rgb(0%,0%,0%)" x1="634.0" x2="634.0" y1="235.0" y2="237.0" /><line stroke="rgb(0%,0%,0%)" x1="221.0" x2="222.0" y1="140.0" y2="139.0" /><line stroke="rgb(0%,0%,0%)" x1="222.0" x2="234.0" y1="139.0" y2="139.0" /><line stroke="rgb(0%,0%,0%)" x1="234.0" x2="235.0" y1="139.0" y2="140.0" /><line stroke="rgb(0%,0%,0%)" x1="235.0" x2="235.0" y1="140.0" y2="250.0" /><line stroke="rgb(0%,0%,0%)" x1="235.0" x2="237.0" y1="250.0" y2="250.0" /><line stroke="rgb(0%,0%,0%)" x1="237.0" x2="238.0" y1="250.0" y2="251.0" /><line stroke="rgb(0%,0%,0%)" x1="238.0" x2="238.0" y1="251.0" y2="302.0" /><line stroke="rgb(0%,0%,0%)" x1="238.0" x2="237.0" y1="302.0" y2="303.0" /><line stroke="rgb(0%,0%,0%)" x1="237.0" x2="200.0" y1="303.0" y2="303.0" /><line stroke="rgb(0%,0%,0%)" x1="200.0" x2="199.0" y1="303.0" y2="304.0" /><line stroke="rgb(0%,0%,0%)" x1="199.0" x2="199.0" y1="304.0" y2="305.0" /><line stroke="rgb(0%,0%,0%)" x1="199.0" x2="198.0" y1="305.0" y2="306.0" /><line stroke="rgb(0%,0%,0%)" x1="198.0" x2="135.0" y1="306.0" y2="306.0" /><line stroke="rgb(0%,0%,0%)" x1="135.0" x2="134.0" y1="306.0" y2="307.0" /><line stroke="rgb(0%,0%,0%)" x1="134.0" x2="91.0" y1="307.0" y2="307.0" /><line stroke="rgb(0%,0%,0%)" x1="91.0" x2="90.0" y1="307.0" y2="306.0" /><line stroke="rgb(0%,0%,0%)" x1="90.0" x2="90.0" y1="306.0" y2="141.0" /><line stroke="rgb(0%,0%,0%)" x1="90.0" x2="91.0" y1="141.0" y2="140.0" /><line stroke="rgb(0%,0%,0%)" x1="221.0" x2="91.0" y1="140.0" y2="140.0" /></svg>