<?xml version="1.0" encoding="utf-8" ?>
<svg baseProfile="full" height="100%" version="1.1" width="100%" xmlns="http://www.w3.org/2000/svg" xmlns:ev="http://www.w3.org/2001/xml-events" xmlns:xlink="http://www.w3.org/1999/xlink"><defs /><line stroke="rgb(0%,0%,0%)" x1="560.0" x2="559.0" y1="202.0" y2="203.0" /><line stroke="rgb(0%,0%,0%)" x1="559.0" x2="329.0" y1="203.0" y2="203.0" /><line stroke="rgb(0%,0%,0%)" x1="329.0" x2="328.0" y1="203.0" y2="204.0" /><line stroke="rgb(0%,0%,0%)" x1="328.0" x2="99.0" y1="204.0" y2="204.0" /><line stroke="rgb(0%,0%,0%)" x1="99.0" x2="98.0" y1="204.0" y2="205.0" /><line stroke="rgb(0%,0%,0%)" x1="98.0" x2="22.0" y1="205.0" y2="205.0" /><line stroke="rgb(0%,0%,0%)" x1="22.0" x2="22.0" y1="205.0" y2="240.0" /><line stroke="rgb(0%,0%,0%)" x1="22.0" x2="21.0" y1="240.0" y2="241.0" /><line stroke="rgb(0%,0%,0%)" x1="21.0" x2="19.0" y1="241.0" y2="241.0" /><line stroke="rgb(0%,0%,0%)" x1="19.0" x2="19.0" y1="241.0" y2="348.0" /><line stroke="rgb(0%,0%,0%)" x1="19.0" x2="18.0" y1="348.0" y2="349.0" /><line stroke="rgb(0%,0%,0%)" x1="18.0" x2="17.0" y1="349.0" y2="349.0" /><line stroke="rgb(0%,0%,0%)" x1="17.0" x2="17.0" y1="349.0" y2="594.0" /><line stroke="rgb(0%,0%,0%)" x1="17.0" x2="16.0" y1="594.0" y2="595.0" /><line stroke="rgb(0%,0%,0%)" x1="16.0" x2="15.0" y1="595.0" y2="595.0" /><line stroke="rgb(0%,0%,0%)" x1="15.0" x2="15.0" y1="595.0" y2="596.0" /><line stroke="rgb(0%,0%,0%)" x1="15.0" x2="14.0" y1="596.0" y2="597.0" /><line stroke="rgb(0%,0%,0%)" x1="14.0" x2="14.0" y1="597.0" y2="599.0" /><line stroke="rgb(0%,0%,0%)" x1="14.0" x2="15.0" y1="599.0" y2="600.0" /><line stroke="rgb(0%,0%,0%)" x1="15.0" x2="15.0" y1="600.0" y2="602.0" /><line stroke="rgb(0%,0%,0%)" x1="15.0" x2="14.0" y1="602.0" y2="603.0" /><line stroke="rgb(0%,0%,0%)" x1="14.0" x2="14.0" y1="603.0" y2="607.0" /><line stroke="rgb(0%,0%,0%)" x1="14.0" x2="15.0" y1="607.0" y2="608.0" /><line stroke="rgb(0%,0%,0%)" x1="15.0" x2="15.0" y1="608.0" y2="616.0" /><line stroke="rgb(0%,0%,0%)" x1="15.0" x2="16.0" y1="616.0" y2="617.0" /><line stroke="rgb(0%,0%,0%)" x1="16.0" x2="15.0" y1="617.0" y2="618.0" /><line stroke="rgb(0%,0%,0%)" x1="15.0" x2="15.0" y1="618.0" y2="697.0" /><line stroke="rgb(0%,0%,0%)" x1="15.0" x2="17.0" y1="697.0" y2="697.0" /><line stroke="rgb(0%,0%,0%)" x1="17.0" x2="18.0" y1="697.0" y2="698.0" /><line stroke="rgb(0%,0%,0%)" x1="18.0" x2="18.0" y1="698.0" y2="705.0" /><line stroke="rgb(0%,0%,0%)" x1="18.0" x2="17.0" y1="705.0" y2="706.0" /><line stroke="rgb(0%,0%,0%)" x1="17.0" x2="15.0" y1="706.0" y2="706.0" /><line stroke="rgb(0%,0%,0%)" x1="15.0" x2="15.0" y1="706.0" y2="963.0" /><line stroke="rgb(0%,0%,0%)" x1="15.0" x2="16.0" y1="963.0" y2="964.0" /><line stroke="rgb(0%,0%,0%)" x1="16.0" x2="16.0" y1="964.0" y2="1203.0" /><line stroke="rgb(0%,0%,0%)" x1="16.0" x2="49.0" y1="1203.0" y2="1203.0" /><line stroke="rgb(0%,0%,0%)" x1="49.0" x2="50.0" y1="1203.0" y2="1202.0" /><line stroke="rgb(0%,0%,0%)" x1="50.0" x2="102.0" y1="1202.0" y2="1202.0" /><line stroke="rgb(0%,0%,0%)" x1="102.0" x2="103.0" y1="1202.0" y2="1201.0" /><line stroke="rgb(0%,0%,0%)" x1="103.0" x2="121.0" y1="1201.0" y2="1201.0" /><line stroke="rgb(0%,0%,0%)" x1="121.0" x2="122.0" y1="1201.0" y2="1202.0" /><line stroke="rgb(0%,0%,0%)" x1="122.0" x2="122.0" y1="1202.0" y2="1204.0" /><line stroke="rgb(0%,0%,0%)" x1="122.0" x2="144.0" y1="1204.0" y2="1204.0" /><line stroke="rgb(0%,0%,0%)" x1="144.0" x2="145.0" y1="1204.0" y2="1203.0" /><line stroke="rgb(0%,0%,0%)" x1="145.0" x2="165.0" y1="1203.0" y2="1203.0" /><line stroke="rgb(0%,0%,0%)" x1="165.0" x2="166.0" y1="1203.0" y2="1204.0" /><line stroke="rgb(0%,0%,0%)" x1="166.0" x2="166.0" y1="1204.0" y2="1206.0" /><line stroke="rgb(0%,0%,0%)" x1="166.0" x2="185.0" y1="1206.0" y2="1206.0" /><line stroke="rgb(0%,0%,0%)" x1="185.0" x2="186.0" y1="1206.0" y2="1205.0" /><line stroke="rgb(0%,0%,0%)" x1="186.0" x2="239.0" y1="1205.0" y2="1205.0" /><line stroke="rgb(0%,0%,0%)" x1="239.0" x2="240.0" y1="1205.0" y2="1204.0" /><line stroke="rgb(0%,0%,0%)" x1="240.0" x2="292.0" y1="1204.0" y2="1204.0" /><line stroke="rgb(0%,0%,0%)" x1="292.0" x2="293.0" y1="1204.0" y2="1203.0" /><line stroke="rgb(0%,0%,0%)" x1="293.0" x2="345.0" y1="1203.0" y2="1203.0" /><line stroke="rgb(0%,0%,0%)" x1="345.0" x2="346.0" y1="1203.0" y2="1202.0" /><line stroke="rgb(0%,0%,0%)" x1="346.0" x2="354.0" y1="1202.0" y2="1202.0" /><line stroke="rgb(0%,0%,0%)" x1="354.0" x2="355.0" y1="1202.0" y2="1203.0" /><line stroke="rgb(0%,0%,0%)" x1="355.0" x2="355.0" y1="1203.0" y2="1205.0" /><line stroke="rgb(0%,0%,0%)" x1="355.0" x2="362.0" y1="1205.0" y2="1205.0" /><line stroke="rgb(0%,0%,0%)" x1="362.0" x2="362.0" y1="1205.0" y2="1203.0" /><line stroke="rgb(0%,0%,0%)" x1="362.0" x2="363.0" y1="1203.0" y2="1202.0" /><line stroke="rgb(0%,0%,0%)" x1="363.0" x2="365.0" y1="1202.0" y2="1202.0" /><line stroke="rgb(0%,0%,0%)" x1="365.0" x2="366.0" y1="1202.0" y2="1203.0" /><line stroke="rgb(0%,0%,0%)" x1="366.0" x2="366.0" y1="1203.0" y2="1205.0" /><line stroke="rgb(0%,0%,0%)" x1="366.0" x2="386.0" y1="1205.0" y2="1205.0" /><line stroke="rgb(0%,0%,0%)" x1="386.0" x2="387.0" y1="1205.0" y2="1204.0" /><line stroke="rgb(0%,0%,0%)" x1="387.0" x2="412.0" y1="1204.0" y2="1204.0" /><line stroke="rgb(0%,0%,0%)" x1="412.0" x2="413.0" y1="1204.0" y2="1205.0" /><line stroke="rgb(0%,0%,0%)" x1="413.0" x2="413.0" y1="1205.0" y2="1207.0" /><line stroke="rgb(0%,0%,0%)" x1="413.0" x2="427.0" y1="1207.0" y2="1207.0" /><line stroke="rgb(0%,0%,0%)" x1="427.0" x2="428.0" y1="1207.0" y2="1206.0" /><line stroke="rgb(0%,0%,0%)" x1="428.0" x2="480.0" y1="1206.0" y2="1206.0" /><line stroke="rgb(0%,0%,0%)" x1="480.0" x2="481.0" y1="1206.0" y2="1205.0" /><line stroke="rgb(0%,0%,0%)" x1="481.0" x2="524.0" y1="1205.0" y2="1205.0" /><line stroke="rgb(0%,0%,0%)" x1="524.0" x2="526.0" y1="1205.0" y2="1207.0" /><line stroke="rgb(0%,0%,0%)" x1="526.0" x2="574.0" y1="1207.0" y2="1207.0" /><line stroke="rgb(0%,0%,0%)" x1="574.0" x2="575.0" y1="1207.0" y2="1206.0" /><line stroke="rgb(0%,0%,0%)" x1="575.0" x2="626.0" y1="1206.0" y2="1206.0" /><line stroke="rgb(0%,0%,0%)" x1="626.0" x2="627.0" y1="1206.0" y2="1205.0" /><line stroke="rgb(0%,0%,0%)" x1="627.0" x2="667.0" y1="1205.0" y2="1205.0" /><line stroke="rgb(0%,0%,0%)" x1="667.0" x2="668.0" y1="1205.0" y2="1206.0" /><line stroke="rgb(0%,0%,0%)" x1="668.0" x2="668.0" y1="1206.0" y2="1207.0" /><line stroke="rgb(0%,0%,0%)" x1="668.0" x2="719.0" y1="1207.0" y2="1207.0" /><line stroke="rgb(0%,0%,0%)" x1="719.0" x2="720.0" y1="1207.0" y2="1206.0" /><line stroke="rgb(0%,0%,0%)" x1="720.0" x2="749.0" y1="1206.0" y2="1206.0" /><line stroke="rgb(0%,0%,0%)" x1="749.0" x2="750.0" y1="1206.0" y2="1207.0" /><line stroke="rgb(0%,0%,0%)" x1="750.0" x2="750.0" y1="1207.0" y2="1208.0" /><line stroke="rgb(0%,0%,0%)" x1="750.0" x2="751.0" y1="1208.0" y2="1208.0" /><line stroke="rgb(0%,0%,0%)" x1="751.0" x2="752.0" y1="1208.0" y2="1209.0" /><line stroke="rgb(0%,0%,0%)" x1="752.0" x2="759.0" y1="1209.0" y2="1209.0" /><line stroke="rgb(0%,0%,0%)" x1="759.0" x2="760.0" y1="1209.0" y2="1208.0" /><line stroke="rgb(0%,0%,0%)" x1="760.0" x2="771.0" y1="1208.0" y2="1208.0" /><line stroke="rgb(0%,0%,0%)" x1="771.0" x2="771.0" y1="1208.0" y2="1207.0" /><line stroke="rgb(0%,0%,0%)" x1="771.0" x2="773.0" y1="1207.0" y2="1205.0" /><line stroke="rgb(0%,0%,0%)" x1="773.0" x2="776.0" y1="1205.0" y2="1205.0" /><line stroke="rgb(0%,0%,0%)" x1="776.0" x2="776.0" y1="1205.0" y2="1075.0" /><line stroke="rgb(0%,0%,0%)" x1="776.0" x2="775.0" y1="1075.0" y2="1074.0" /><line stroke="rgb(0%,0%,0%)" x1="775.0" x2="775.0" y1="1074.0" y2="953.0" /><line stroke="rgb(0%,0%,0%)" x1="775.0" x2="776.0" y1="953.0" y2="952.0" /><line stroke="rgb(0%,0%,0%)" x1="776.0" x2="777.0" y1="952.0" y2="952.0" /><line stroke="rgb(0%,0%,0%)" x1="777.0" x2="777.0" y1="952.0" y2="906.0" /><line stroke="rgb(0%,0%,0%)" x1="777.0" x2="778.0" y1="906.0" y2="905.0" /><line stroke="rgb(0%,0%,0%)" x1="778.0" x2="780.0" y1="905.0" y2="905.0" /><line stroke="rgb(0%,0%,0%)" x1="780.0" x2="780.0" y1="905.0" y2="831.0" /><line stroke="rgb(0%,0%,0%)" x1="780.0" x2="779.0" y1="831.0" y2="830.0" /><line stroke="rgb(0%,0%,0%)" x1="779.0" x2="779.0" y1="830.0" y2="772.0" /><line stroke="rgb(0%,0%,0%)" x1="779.0" x2="780.0" y1="772.0" y2="771.0" /><line stroke="rgb(0%,0%,0%)" x1="780.0" x2="781.0" y1="771.0" y2="771.0" /><line stroke="rgb(0%,0%,0%)" x1="781.0" x2="782.0" y1="771.0" y2="770.0" /><line stroke="rgb(0%,0%,0%)" x1="782.0" x2="782.0" y1="770.0" y2="709.0" /><line stroke="rgb(0%,0%,0%)" x1="782.0" x2="781.0" y1="709.0" y2="708.0" /><line stroke="rgb(0%,0%,0%)" x1="781.0" x2="781.0" y1="708.0" y2="631.0" /><line stroke="rgb(0%,0%,0%)" x1="781.0" x2="782.0" y1="631.0" y2="630.0" /><line stroke="rgb(0%,0%,0%)" x1="782.0" x2="784.0" y1="630.0" y2="630.0" /><line stroke="rgb(0%,0%,0%)" x1="784.0" x2="784.0" y1="630.0" y2="624.0" /><line stroke="rgb(0%,0%,0%)" x1="784.0" x2="783.0" y1="624.0" y2="623.0" /><line stroke="rgb(0%,0%,0%)" x1="783.0" x2="782.0" y1="623.0" y2="623.0" /><line stroke="rgb(0%,0%,0%)" x1="782.0" x2="781.0" y1="623.0" y2="622.0" /><line stroke="rgb(0%,0%,0%)" x1="781.0" x2="781.0" y1="622.0" y2="620.0" /><line stroke="rgb(0%,0%,0%)" x1="781.0" x2="782.0" y1="620.0" y2="619.0" /><line stroke="rgb(0%,0%,0%)" x1="782.0" x2="784.0" y1="619.0" y2="619.0" /><line stroke="rgb(0%,0%,0%)" x1="784.0" x2="784.0" y1="619.0" y2="588.0" /><line stroke="rgb(0%,0%,0%)" x1="784.0" x2="783.0" y1="588.0" y2="587.0" /><line stroke="rgb(0%,0%,0%)" x1="783.0" x2="783.0" y1="587.0" y2="483.0" /><line stroke="rgb(0%,0%,0%)" x1="783.0" x2="784.0" y1="483.0" y2="482.0" /><line stroke="rgb(0%,0%,0%)" x1="784.0" x2="786.0" y1="482.0" y2="482.0" /><line stroke="rgb(0%,0%,0%)" x1="786.0" x2="786.0" y1="482.0" y2="473.0" /><line stroke="rgb(0%,0%,0%)" x1="786.0" x2="785.0" y1="473.0" y2="472.0" /><line stroke="rgb(0%,0%,0%)" x1="785.0" x2="786.0" y1="472.0" y2="471.0" /><line stroke="rgb(0%,0%,0%)" x1="786.0" x2="786.0" y1="471.0" y2="468.0" /><line stroke="rgb(0%,0%,0%)" x1="786.0" x2="785.0" y1="468.0" y2="467.0" /><line stroke="rgb(0%,0%,0%)" x1="785.0" x2="785.0" y1="467.0" y2="300.0" /><line stroke="rgb(0%,0%,0%)" x1="785.0" x2="784.0" y1="300.0" y2="299.0" /><line stroke="rgb(0%,0%,0%)" x1="784.0" x2="784.0" y1="299.0" y2="204.0" /><line stroke="rgb(0%,0%,0%)" x1="784.0" x2="730.0" y1="204.0" y2="204.0" /><line stroke="rgb(0%,0%,0%)" x1="730.0" x2="729.0" y1="204.0" y2="205.0" /><line stroke="rgb(0%,0%,0%)" x1="729.0" x2="728.0" y1="205.0" y2="205.0" /><line stroke="rgb(0%,0%,0%)" x1="728.0" x2="727.0" y1="205.0" y2="204.0" /><line stroke="rgb(0%,0%,0%)" x1="727.0" x2="727.0" y1="204.0" y2="202.0" /><line stroke="rgb(0%,0%,0%)" x1="560.0" x2="727.0" y1="202.0" y2="202.0" /><line stroke="rgb(0%,0%,0%)" x1="677.0" x2="678.0" y1="1106.0" y2="1105.0" /><line stroke="rgb(0%,0%,0%)" x1="678.0" x2="680.0" y1="1105.0" y2="1105.0" /><line stroke="rgb(0%,0%,0%)" x1="680.0" x2="681.0" y1="1105.0" y2="1106.0" /><line stroke="rgb(0%,0%,0%)" x1="681.0" x2="681.0" y1="1106.0" y2="1111.0" /><line stroke="rgb(0%,0%,0%)" x1="681.0" x2="680.0" y1="1111.0" y2="1112.0" /><line stroke="rgb(0%,0%,0%)" x1="680.0" x2="678.0" y1="1112.0" y2="1112.0" /><line stroke="rgb(0%,0%,0%)" x1="678.0" x2="677.0" y1="1112.0" y2="1111.0" /><line stroke="rgb(0%,0%,0%)" x1="677.0" x2="677.0" y1="1106.0" y2="1111.0" /><line stroke="rgb(0%,0%,0%)" x1="109.0" x2="110.0" y1="1105.0" y2="1104.0" /><line stroke="rgb(0%,0%,0%)" x1="110.0" x2="112.0" y1="1104.0" y2="1104.0" /><line stroke="rgb(0%,0%,0%)" x1="112.0" x2="113.0" y1="1104.0" y2="1105.0" /><line stroke="rgb(0%,0%,0%)" x1="113.0" x2="113.0" y1="1105.0" y2="1110.0" /><line stroke="rgb(0%,0%,0%)" x1="113.0" x2="112.0" y1="1110.0" y2="1111.0" /><line stroke="rgb(0%,0%,0%)" x1="112.0" x2="110.0" y1="1111.0" y2="1111.0" /><line stroke="rgb(0%,0%,0%)" x1="110.0" x2="109.0" y1="1111.0" y2="1110.0" /><line stroke="rgb(0%,0%,0%)" x1="109.0" x2="109.0" y1="1105.0" y2="1110.0" /><line stroke="rgb(0%,0%,0%)" x1="375.0" x2="376.0" y1="959.0" y2="958.0" /><line stroke="rgb(0%,0%,0%)" x1="376.0" x2="380.0" y1="958.0" y2="958.0" /><line stroke="rgb(0%,0%,0%)" x1="380.0" x2="381.0" y1="958.0" y2="959.0" /><line stroke="rgb(0%,0%,0%)" x1="381.0" x2="381.0" y1="959.0" y2="961.0" /><line stroke="rgb(0%,0%,0%)" x1="381.0" x2="380.0" y1="961.0" y2="962.0" /><line stroke="rgb(0%,0%,0%)" x1="380.0" x2="376.0" y1="962.0" y2="962.0" /><line stroke="rgb(0%,0%,0%)" x1="376.0" x2="375.0" y1="962.0" y2="961.0" /><line stroke="rgb(0%,0%,0%)" x1="375.0" x2="375.0" y1="959.0" y2="961.0" /><line stroke="rgb(0%,0%,0%)" x1="111.0" x2="112.0" y1="804.0" y2="803.0" /><line stroke="rgb(0%,0%,0%)" x1="112.0" x2="113.0" y1="803.0" y2="804.0" /><line stroke="rgb(0%,0%,0%)" x1="113.0" x2="112.0" y1="804.0" y2="805.0" /><line stroke="rgb(0%,0%,0%)" x1="111.0" x2="112.0" y1="804.0" y2="805.0" /><line stroke="rgb(0%,0%,0%)" x1="681.0" x2="682.0" y1="803.0" y2="802.0" /><line stroke="rgb(0%,0%,0%)" x1="682.0" x2="684.0" y1="802.0" y2="802.0" /><line stroke="rgb(0%,0%,0%)" x1="684.0" x2="685.0" y1="802.0" y2="803.0" /><line stroke="rgb(0%,0%,0%)" x1="685.0" x2="685.0" y1="803.0" y2="808.0" /><line stroke="rgb(0%,0%,0%)" x1="685.0" x2="684.0" y1="808.0" y2="809.0" /><line stroke="rgb(0%,0%,0%)" x1="684.0" x2="682.0" y1="809.0" y2="809.0" /><line stroke="rgb(0%,0%,0%)" x1="682.0" x2="681.0" y1="809.0" y2="808.0" /><line stroke="rgb(0%,0%,0%)" x1="681.0" x2="681.0" y1="803.0" y2="808.0" /><line stroke="rgb(0%,0%,0%)" x1="683.0" x2="684.0" y1="608.0" y2="607.0" /><line stroke="rgb(0%,0%,0%)" x1="684.0" x2="688.0" y1="607.0" y2="607.0" /><line stroke="rgb(0%,0%,0%)" x1="688.0" x2="689.0" y1="607.0" y2="608.0" /><line stroke="rgb(0%,0%,0%)" x1="689.0" x2="689.0" y1="608.0" y2="610.0" /><line stroke="rgb(0%,0%,0%)" x1="689.0" x2="688.0" y1="610.0" y2="611.0" /><line stroke="rgb(0%,0%,0%)" x1="688.0" x2="684.0" y1="611.0" y2="611.0" /><line stroke="rgb(0%,0%,0%)" x1="684.0" x2="683.0" y1="611.0" y2="610.0" /><line stroke="rgb(0%,0%,0%)" x1="683.0" x2="683.0" y1="608.0" y2="610.0" /><line stroke="rgb(0%,0%,0%)" x1="111.0" x2="112.0" y1="605.0" y2="604.0" /><line stroke="rgb(0%,0%,0%)" x1="112.0" x2="116.0" y1="604.0" y2="604.0" /><line stroke="rgb(0%,0%,0%)" x1="116.0" x2="117.0" y1="604.0" y2="605.0" /><line stroke="rgb(0%,0%,0%)" x1="117.0" x2="117.0" y1="605.0" y2="610.0" /><line stroke="rgb(0%,0%,0%)" x1="117.0" x2="116.0" y1="610.0" y2="611.0" /><line stroke="rgb(0%,0%,0%)" x1="116.0" x2="112.0" y1="611.0" y2="611.0" /><line stroke="rgb(0%,0%,0%)" x1="112.0" x2="111.0" y1="611.0" y2="610.0" /><line stroke="rgb(0%,0%,0%)" x1="111.0" x2="111.0" y1="605.0" y2="610.0" /><line stroke="rgb(0%,0%,0%)" x1="416.0" x2="417.0" y1="453.0" y2="452.0" /><line stroke="rgb(0%,0%,0%)" x1="417.0" x2="419.0" y1="452.0" y2="452.0" /><line stroke="rgb(0%,0%,0%)" x1="419.0" x2="420.0" y1="452.0" y2="453.0" /><line stroke="rgb(0%,0%,0%)" x1="420.0" x2="420.0" y1="453.0" y2="458.0" /><line stroke="rgb(0%,0%,0%)" x1="420.0" x2="419.0" y1="458.0" y2="459.0" /><line stroke="rgb(0%,0%,0%)" x1="419.0" x2="417.0" y1="459.0" y2="459.0" /><line stroke="rgb(0%,0%,0%)" x1="417.0" x2="416.0" y1="459.0" y2="458.0" /><line stroke="rgb(0%,0%,0%)" x1="416.0" x2="416.0" y1="453.0" y2="458.0" /><line stroke="rgb(0%,0%,0%)" x1="684.0" x2="685.0" y1="300.0" y2="299.0" /><line stroke="rgb(0%,0%,0%)" x1="685.0" x2="692.0" y1="299.0" y2="299.0" /><line stroke="rgb(0%,0%,0%)" x1="692.0" x2="693.0" y1="299.0" y2="300.0" /><line stroke="rgb(0%,0%,0%)" x1="693.0" x2="693.0" y1="300.0" y2="302.0" /><line stroke="rgb(0%,0%,0%)" x1="693.0" x2="692.0" y1="302.0" y2="303.0" /><line stroke="rgb(0%,0%,0%)" x1="692.0" x2="688.0" y1="303.0" y2="303.0" /><line stroke="rgb(0%,0%,0%)" x1="688.0" x2="688.0" y1="303.0" y2="304.0" /><line stroke="rgb(0%,0%,0%)" x1="688.0" x2="687.0" y1="304.0" y2="305.0" /><line stroke="rgb(0%,0%,0%)" x1="687.0" x2="686.0" y1="305.0" y2="304.0" /><line stroke="rgb(0%,0%,0%)" x1="686.0" x2="686.0" y1="304.0" y2="303.0" /><line stroke="rgb(0%,0%,0%)" x1="686.0" x2="685.0" y1="303.0" y2="303.0" /><line stroke="rgb(0%,0%,0%)" x1="685.0" x2="684.0" y1="303.0" y2="302.0" /><line stroke="rgb(0%,0%,0%)" x1="684.0" x2="684.0" y1="300.0" y2="302.0" /><line stroke="rgb(0%,0%,0%)" x1="112.0" x2="113.0" y1="298.0" y2="297.0" /><line stroke="rgb(0%,0%,0%)" x1="113.0" x2="118.0" y1="297.0" y2="297.0" /><line stroke="rgb(0%,0%,0%)" x1="118.0" x2="119.0" y1="297.0" y2="298.0" /><line stroke="rgb(0%,0%,0%)" x1="119.0" x2="119.0" y1="298.0" y2="306.0" /><line stroke="rgb(0%,0%,0%)" x1="119.0" x2="118.0" y1="306.0" y2="307.0" /><line stroke="rgb(0%,0%,0%)" x1="118.0" x2="113.0" y1="307.0" y2="307.0" /><line stroke="rgb(0%,0%,0%)" x1="113.0" x2="112.0" y1="307.0" y2="306.0" /><line stroke="rgb(0%,0%,0%)" x1="112.0" x2="112.0" y1="298.0" y2="306.0" /><line stroke="rgb(0%,0%,0%)" x1="118.0" x2="118.0" y1="111.0" y2="112.0" /><line stroke="rgb(0%,0%,0%)" x1="118.0" x2="117.0" y1="112.0" y2="113.0" /><line stroke="rgb(0%,0%,0%)" x1="117.0" x2="107.0" y1="113.0" y2="113.0" /><line stroke="rgb(0%,0%,0%)" x1="107.0" x2="106.0" y1="113.0" y2="114.0" /><line stroke="rgb(0%,0%,0%)" x1="106.0" x2="105.0" y1="114.0" y2="114.0" /><line stroke="rgb(0%,0%,0%)" x1="105.0" x2="105.0" y1="114.0" y2="120.0" /><line stroke="rgb(0%,0%,0%)" x1="105.0" x2="106.0" y1="120.0" y2="121.0" /><line stroke="rgb(0%,0%,0%)" x1="106.0" x2="117.0" y1="121.0" y2="121.0" /><line stroke="rgb(0%,0%,0%)" x1="117.0" x2="117.0" y1="121.0" y2="119.0" /><line stroke="rgb(0%,0%,0%)" x1="117.0" x2="118.0" y1="119.0" y2="118.0" /><line stroke="rgb(0%,0%,0%)" x1="118.0" x2="125.0" y1="118.0" y2="118.0" /><line stroke="rgb(0%,0%,0%)" x1="125.0" x2="126.0" y1="118.0" y2="117.0" /><line stroke="rgb(0%,0%,0%)" x1="126.0" x2="126.0" y1="117.0" y2="116.0" /><line stroke="rgb(0%,0%,0%)" x1="126.0" x2="127.0" y1="116.0" y2="115.0" /><line stroke="rgb(0%,0%,0%)" x1="127.0" x2="131.0" y1="115.0" y2="115.0" /><line stroke="rgb(0%,0%,0%)" x1="131.0" x2="131.0" y1="115.0" y2="111.0" /><line stroke="rgb(0%,0%,0%)" x1="118.0" x2="131.0" y1="111.0" y2="111.0" /><line stroke="rgb(0%,0%,0%)" x1="681.0" x2="681.0" y1="2.0" y2="7.0" /><line stroke="rgb(0%,0%,0%)" x1="681.0" x2="685.0" y1="7.0" y2="7.0" /><line stroke="rgb(0%,0%,0%)" x1="685.0" x2="686.0" y1="7.0" y2="8.0" /><line stroke="rgb(0%,0%,0%)" x1="686.0" x2="686.0" y1="8.0" y2="12.0" /><line stroke="rgb(0%,0%,0%)" x1="686.0" x2="690.0" y1="12.0" y2="12.0" /><line stroke="rgb(0%,0%,0%)" x1="690.0" x2="691.0" y1="12.0" y2="13.0" /><line stroke="rgb(0%,0%,0%)" x1="691.0" x2="691.0" y1="13.0" y2="14.0" /><line stroke="rgb(0%,0%,0%)" x1="691.0" x2="692.0" y1="14.0" y2="15.0" /><line stroke="rgb(0%,0%,0%)" x1="692.0" x2="696.0" y1="15.0" y2="15.0" /><line stroke="rgb(0%,0%,0%)" x1="696.0" x2="696.0" y1="15.0" y2="13.0" /><line stroke="rgb(0%,0%,0%)" x1="696.0" x2="697.0" y1="13.0" y2="12.0" /><line stroke="rgb(0%,0%,0%)" x1="697.0" x2="700.0" y1="12.0" y2="12.0" /><line stroke="rgb(0%,0%,0%)" x1="700.0" x2="701.0" y1="12.0" y2="11.0" /><line stroke="rgb(0%,0%,0%)" x1="701.0" x2="701.0" y1="11.0" y2="8.0" /><line stroke="rgb(0%,0%,0%)" x1="701.0" x2="702.0" y1="8.0" y2="7.0" /><line stroke="rgb(0%,0%,0%)" x1="702.0" x2="704.0" y1="7.0" y2="7.0" /><line stroke="rgb(0%,0%,0%)" x1="704.0" x2="704.0" y1="7.0" y2="2.0" /><line stroke="rgb(0%,0%,0%)" x1="681.0" x2="704.0" y1="2.0" y2="2.0" /></svg>