<?xml version="1.0" encoding="utf-8" ?>
<svg baseProfile="full" height="100%" version="1.1" width="100%" xmlns="http://www.w3.org/2000/svg" xmlns:ev="http://www.w3.org/2001/xml-events" xmlns:xlink="http://www.w3.org/1999/xlink"><defs /><line stroke="rgb(0%,0%,0%)" x1="582.0" x2="581.0" y1="702.0" y2="703.0" /><line stroke="rgb(0%,0%,0%)" x1="581.0" x2="496.0" y1="703.0" y2="703.0" /><line stroke="rgb(0%,0%,0%)" x1="496.0" x2="495.0" y1="703.0" y2="704.0" /><line stroke="rgb(0%,0%,0%)" x1="495.0" x2="409.0" y1="704.0" y2="704.0" /><line stroke="rgb(0%,0%,0%)" x1="409.0" x2="408.0" y1="704.0" y2="705.0" /><line stroke="rgb(0%,0%,0%)" x1="408.0" x2="323.0" y1="705.0" y2="705.0" /><line stroke="rgb(0%,0%,0%)" x1="323.0" x2="322.0" y1="705.0" y2="706.0" /><line stroke="rgb(0%,0%,0%)" x1="322.0" x2="237.0" y1="706.0" y2="706.0" /><line stroke="rgb(0%,0%,0%)" x1="237.0" x2="236.0" y1="706.0" y2="707.0" /><line stroke="rgb(0%,0%,0%)" x1="236.0" x2="150.0" y1="707.0" y2="707.0" /><line stroke="rgb(0%,0%,0%)" x1="150.0" x2="149.0" y1="707.0" y2="708.0" /><line stroke="rgb(0%,0%,0%)" x1="149.0" x2="76.0" y1="708.0" y2="708.0" /><line stroke="rgb(0%,0%,0%)" x1="76.0" x2="75.0" y1="708.0" y2="707.0" /><line stroke="rgb(0%,0%,0%)" x1="75.0" x2="75.0" y1="707.0" y2="706.0" /><line stroke="rgb(0%,0%,0%)" x1="75.0" x2="15.0" y1="706.0" y2="706.0" /><line stroke="rgb(0%,0%,0%)" x1="15.0" x2="15.0" y1="706.0" y2="708.0" /><line stroke="rgb(0%,0%,0%)" x1="15.0" x2="14.0" y1="708.0" y2="709.0" /><line stroke="rgb(0%,0%,0%)" x1="14.0" x2="12.0" y1="709.0" y2="709.0" /><line stroke="rgb(0%,0%,0%)" x1="12.0" x2="12.0" y1="709.0" y2="886.0" /><line stroke="rgb(0%,0%,0%)" x1="12.0" x2="13.0" y1="886.0" y2="887.0" /><line stroke="rgb(0%,0%,0%)" x1="13.0" x2="13.0" y1="887.0" y2="975.0" /><line stroke="rgb(0%,0%,0%)" x1="13.0" x2="15.0" y1="975.0" y2="975.0" /><line stroke="rgb(0%,0%,0%)" x1="15.0" x2="16.0" y1="975.0" y2="976.0" /><line stroke="rgb(0%,0%,0%)" x1="16.0" x2="16.0" y1="976.0" y2="1167.0" /><line stroke="rgb(0%,0%,0%)" x1="16.0" x2="15.0" y1="1167.0" y2="1168.0" /><line stroke="rgb(0%,0%,0%)" x1="15.0" x2="13.0" y1="1168.0" y2="1168.0" /><line stroke="rgb(0%,0%,0%)" x1="13.0" x2="13.0" y1="1168.0" y2="1209.0" /><line stroke="rgb(0%,0%,0%)" x1="13.0" x2="26.0" y1="1209.0" y2="1209.0" /><line stroke="rgb(0%,0%,0%)" x1="26.0" x2="27.0" y1="1209.0" y2="1208.0" /><line stroke="rgb(0%,0%,0%)" x1="27.0" x2="63.0" y1="1208.0" y2="1208.0" /><line stroke="rgb(0%,0%,0%)" x1="63.0" x2="64.0" y1="1208.0" y2="1209.0" /><line stroke="rgb(0%,0%,0%)" x1="64.0" x2="64.0" y1="1209.0" y2="1211.0" /><line stroke="rgb(0%,0%,0%)" x1="64.0" x2="68.0" y1="1211.0" y2="1211.0" /><line stroke="rgb(0%,0%,0%)" x1="68.0" x2="69.0" y1="1211.0" y2="1210.0" /><line stroke="rgb(0%,0%,0%)" x1="69.0" x2="71.0" y1="1210.0" y2="1210.0" /><line stroke="rgb(0%,0%,0%)" x1="71.0" x2="71.0" y1="1210.0" y2="1209.0" /><line stroke="rgb(0%,0%,0%)" x1="71.0" x2="72.0" y1="1209.0" y2="1208.0" /><line stroke="rgb(0%,0%,0%)" x1="72.0" x2="79.0" y1="1208.0" y2="1208.0" /><line stroke="rgb(0%,0%,0%)" x1="79.0" x2="80.0" y1="1208.0" y2="1207.0" /><line stroke="rgb(0%,0%,0%)" x1="80.0" x2="93.0" y1="1207.0" y2="1207.0" /><line stroke="rgb(0%,0%,0%)" x1="93.0" x2="94.0" y1="1207.0" y2="1208.0" /><line stroke="rgb(0%,0%,0%)" x1="94.0" x2="94.0" y1="1208.0" y2="1210.0" /><line stroke="rgb(0%,0%,0%)" x1="94.0" x2="121.0" y1="1210.0" y2="1210.0" /><line stroke="rgb(0%,0%,0%)" x1="121.0" x2="122.0" y1="1210.0" y2="1209.0" /><line stroke="rgb(0%,0%,0%)" x1="122.0" x2="165.0" y1="1209.0" y2="1209.0" /><line stroke="rgb(0%,0%,0%)" x1="165.0" x2="167.0" y1="1209.0" y2="1211.0" /><line stroke="rgb(0%,0%,0%)" x1="167.0" x2="187.0" y1="1211.0" y2="1211.0" /><line stroke="rgb(0%,0%,0%)" x1="187.0" x2="187.0" y1="1211.0" y2="1210.0" /><line stroke="rgb(0%,0%,0%)" x1="187.0" x2="188.0" y1="1210.0" y2="1209.0" /><line stroke="rgb(0%,0%,0%)" x1="188.0" x2="189.0" y1="1209.0" y2="1210.0" /><line stroke="rgb(0%,0%,0%)" x1="189.0" x2="189.0" y1="1210.0" y2="1211.0" /><line stroke="rgb(0%,0%,0%)" x1="189.0" x2="215.0" y1="1211.0" y2="1211.0" /><line stroke="rgb(0%,0%,0%)" x1="215.0" x2="216.0" y1="1211.0" y2="1210.0" /><line stroke="rgb(0%,0%,0%)" x1="216.0" x2="268.0" y1="1210.0" y2="1210.0" /><line stroke="rgb(0%,0%,0%)" x1="268.0" x2="269.0" y1="1210.0" y2="1209.0" /><line stroke="rgb(0%,0%,0%)" x1="269.0" x2="321.0" y1="1209.0" y2="1209.0" /><line stroke="rgb(0%,0%,0%)" x1="321.0" x2="322.0" y1="1209.0" y2="1208.0" /><line stroke="rgb(0%,0%,0%)" x1="322.0" x2="374.0" y1="1208.0" y2="1208.0" /><line stroke="rgb(0%,0%,0%)" x1="374.0" x2="375.0" y1="1208.0" y2="1207.0" /><line stroke="rgb(0%,0%,0%)" x1="375.0" x2="427.0" y1="1207.0" y2="1207.0" /><line stroke="rgb(0%,0%,0%)" x1="427.0" x2="428.0" y1="1207.0" y2="1206.0" /><line stroke="rgb(0%,0%,0%)" x1="428.0" x2="480.0" y1="1206.0" y2="1206.0" /><line stroke="rgb(0%,0%,0%)" x1="480.0" x2="481.0" y1="1206.0" y2="1205.0" /><line stroke="rgb(0%,0%,0%)" x1="481.0" x2="508.0" y1="1205.0" y2="1205.0" /><line stroke="rgb(0%,0%,0%)" x1="508.0" x2="509.0" y1="1205.0" y2="1206.0" /><line stroke="rgb(0%,0%,0%)" x1="509.0" x2="509.0" y1="1206.0" y2="1208.0" /><line stroke="rgb(0%,0%,0%)" x1="509.0" x2="516.0" y1="1208.0" y2="1208.0" /><line stroke="rgb(0%,0%,0%)" x1="516.0" x2="517.0" y1="1208.0" y2="1207.0" /><line stroke="rgb(0%,0%,0%)" x1="517.0" x2="518.0" y1="1207.0" y2="1207.0" /><line stroke="rgb(0%,0%,0%)" x1="518.0" x2="519.0" y1="1207.0" y2="1208.0" /><line stroke="rgb(0%,0%,0%)" x1="519.0" x2="521.0" y1="1208.0" y2="1208.0" /><line stroke="rgb(0%,0%,0%)" x1="521.0" x2="522.0" y1="1208.0" y2="1207.0" /><line stroke="rgb(0%,0%,0%)" x1="522.0" x2="574.0" y1="1207.0" y2="1207.0" /><line stroke="rgb(0%,0%,0%)" x1="574.0" x2="575.0" y1="1207.0" y2="1206.0" /><line stroke="rgb(0%,0%,0%)" x1="575.0" x2="626.0" y1="1206.0" y2="1206.0" /><line stroke="rgb(0%,0%,0%)" x1="626.0" x2="627.0" y1="1206.0" y2="1205.0" /><line stroke="rgb(0%,0%,0%)" x1="627.0" x2="679.0" y1="1205.0" y2="1205.0" /><line stroke="rgb(0%,0%,0%)" x1="679.0" x2="680.0" y1="1205.0" y2="1204.0" /><line stroke="rgb(0%,0%,0%)" x1="680.0" x2="681.0" y1="1204.0" y2="1204.0" /><line stroke="rgb(0%,0%,0%)" x1="681.0" x2="682.0" y1="1204.0" y2="1205.0" /><line stroke="rgb(0%,0%,0%)" x1="682.0" x2="682.0" y1="1205.0" y2="1207.0" /><line stroke="rgb(0%,0%,0%)" x1="682.0" x2="719.0" y1="1207.0" y2="1207.0" /><line stroke="rgb(0%,0%,0%)" x1="719.0" x2="720.0" y1="1207.0" y2="1206.0" /><line stroke="rgb(0%,0%,0%)" x1="720.0" x2="738.0" y1="1206.0" y2="1206.0" /><line stroke="rgb(0%,0%,0%)" x1="738.0" x2="739.0" y1="1206.0" y2="1207.0" /><line stroke="rgb(0%,0%,0%)" x1="739.0" x2="739.0" y1="1207.0" y2="1209.0" /><line stroke="rgb(0%,0%,0%)" x1="739.0" x2="759.0" y1="1209.0" y2="1209.0" /><line stroke="rgb(0%,0%,0%)" x1="759.0" x2="760.0" y1="1209.0" y2="1208.0" /><line stroke="rgb(0%,0%,0%)" x1="760.0" x2="776.0" y1="1208.0" y2="1208.0" /><line stroke="rgb(0%,0%,0%)" x1="776.0" x2="776.0" y1="1208.0" y2="1075.0" /><line stroke="rgb(0%,0%,0%)" x1="776.0" x2="775.0" y1="1075.0" y2="1074.0" /><line stroke="rgb(0%,0%,0%)" x1="775.0" x2="775.0" y1="1074.0" y2="1063.0" /><line stroke="rgb(0%,0%,0%)" x1="775.0" x2="776.0" y1="1063.0" y2="1062.0" /><line stroke="rgb(0%,0%,0%)" x1="776.0" x2="778.0" y1="1062.0" y2="1062.0" /><line stroke="rgb(0%,0%,0%)" x1="778.0" x2="778.0" y1="1062.0" y2="1016.0" /><line stroke="rgb(0%,0%,0%)" x1="778.0" x2="779.0" y1="1016.0" y2="1015.0" /><line stroke="rgb(0%,0%,0%)" x1="779.0" x2="781.0" y1="1015.0" y2="1015.0" /><line stroke="rgb(0%,0%,0%)" x1="781.0" x2="781.0" y1="1015.0" y2="999.0" /><line stroke="rgb(0%,0%,0%)" x1="781.0" x2="780.0" y1="999.0" y2="998.0" /><line stroke="rgb(0%,0%,0%)" x1="780.0" x2="780.0" y1="998.0" y2="931.0" /><line stroke="rgb(0%,0%,0%)" x1="780.0" x2="781.0" y1="931.0" y2="930.0" /><line stroke="rgb(0%,0%,0%)" x1="781.0" x2="782.0" y1="930.0" y2="930.0" /><line stroke="rgb(0%,0%,0%)" x1="782.0" x2="783.0" y1="930.0" y2="929.0" /><line stroke="rgb(0%,0%,0%)" x1="783.0" x2="783.0" y1="929.0" y2="877.0" /><line stroke="rgb(0%,0%,0%)" x1="783.0" x2="782.0" y1="877.0" y2="876.0" /><line stroke="rgb(0%,0%,0%)" x1="782.0" x2="782.0" y1="876.0" y2="774.0" /><line stroke="rgb(0%,0%,0%)" x1="782.0" x2="783.0" y1="774.0" y2="773.0" /><line stroke="rgb(0%,0%,0%)" x1="783.0" x2="785.0" y1="773.0" y2="773.0" /><line stroke="rgb(0%,0%,0%)" x1="785.0" x2="785.0" y1="773.0" y2="756.0" /><line stroke="rgb(0%,0%,0%)" x1="785.0" x2="784.0" y1="756.0" y2="755.0" /><line stroke="rgb(0%,0%,0%)" x1="784.0" x2="784.0" y1="755.0" y2="706.0" /><line stroke="rgb(0%,0%,0%)" x1="784.0" x2="750.0" y1="706.0" y2="706.0" /><line stroke="rgb(0%,0%,0%)" x1="750.0" x2="749.0" y1="706.0" y2="705.0" /><line stroke="rgb(0%,0%,0%)" x1="749.0" x2="749.0" y1="705.0" y2="703.0" /><line stroke="rgb(0%,0%,0%)" x1="749.0" x2="733.0" y1="703.0" y2="703.0" /><line stroke="rgb(0%,0%,0%)" x1="733.0" x2="732.0" y1="703.0" y2="704.0" /><line stroke="rgb(0%,0%,0%)" x1="732.0" x2="668.0" y1="704.0" y2="704.0" /><line stroke="rgb(0%,0%,0%)" x1="668.0" x2="667.0" y1="704.0" y2="703.0" /><line stroke="rgb(0%,0%,0%)" x1="667.0" x2="667.0" y1="703.0" y2="702.0" /><line stroke="rgb(0%,0%,0%)" x1="582.0" x2="667.0" y1="702.0" y2="702.0" /><line stroke="rgb(0%,0%,0%)" x1="139.0" x2="140.0" y1="943.0" y2="942.0" /><line stroke="rgb(0%,0%,0%)" x1="140.0" x2="141.0" y1="942.0" y2="943.0" /><line stroke="rgb(0%,0%,0%)" x1="141.0" x2="141.0" y1="943.0" y2="945.0" /><line stroke="rgb(0%,0%,0%)" x1="141.0" x2="178.0" y1="945.0" y2="945.0" /><line stroke="rgb(0%,0%,0%)" x1="178.0" x2="179.0" y1="945.0" y2="944.0" /><line stroke="rgb(0%,0%,0%)" x1="179.0" x2="239.0" y1="944.0" y2="944.0" /><line stroke="rgb(0%,0%,0%)" x1="239.0" x2="240.0" y1="944.0" y2="945.0" /><line stroke="rgb(0%,0%,0%)" x1="240.0" x2="240.0" y1="945.0" y2="990.0" /><line stroke="rgb(0%,0%,0%)" x1="240.0" x2="241.0" y1="990.0" y2="991.0" /><line stroke="rgb(0%,0%,0%)" x1="241.0" x2="241.0" y1="991.0" y2="1107.0" /><line stroke="rgb(0%,0%,0%)" x1="241.0" x2="240.0" y1="1107.0" y2="1108.0" /><line stroke="rgb(0%,0%,0%)" x1="240.0" x2="232.0" y1="1108.0" y2="1108.0" /><line stroke="rgb(0%,0%,0%)" x1="232.0" x2="231.0" y1="1108.0" y2="1109.0" /><line stroke="rgb(0%,0%,0%)" x1="231.0" x2="175.0" y1="1109.0" y2="1109.0" /><line stroke="rgb(0%,0%,0%)" x1="175.0" x2="174.0" y1="1109.0" y2="1110.0" /><line stroke="rgb(0%,0%,0%)" x1="174.0" x2="166.0" y1="1110.0" y2="1110.0" /><line stroke="rgb(0%,0%,0%)" x1="166.0" x2="165.0" y1="1110.0" y2="1109.0" /><line stroke="rgb(0%,0%,0%)" x1="165.0" x2="165.0" y1="1109.0" y2="1107.0" /><line stroke="rgb(0%,0%,0%)" x1="165.0" x2="161.0" y1="1107.0" y2="1107.0" /><line stroke="rgb(0%,0%,0%)" x1="161.0" x2="161.0" y1="1107.0" y2="1109.0" /><line stroke="rgb(0%,0%,0%)" x1="161.0" x2="160.0" y1="1109.0" y2="1110.0" /><line stroke="rgb(0%,0%,0%)" x1="160.0" x2="159.0" y1="1110.0" y2="1109.0" /><line stroke="rgb(0%,0%,0%)" x1="159.0" x2="159.0" y1="1109.0" y2="1107.0" /><line stroke="rgb(0%,0%,0%)" x1="159.0" x2="130.0" y1="1107.0" y2="1107.0" /><line stroke="rgb(0%,0%,0%)" x1="130.0" x2="129.0" y1="1107.0" y2="1108.0" /><line stroke="rgb(0%,0%,0%)" x1="129.0" x2="99.0" y1="1108.0" y2="1108.0" /><line stroke="rgb(0%,0%,0%)" x1="99.0" x2="98.0" y1="1108.0" y2="1107.0" /><line stroke="rgb(0%,0%,0%)" x1="98.0" x2="98.0" y1="1107.0" y2="1105.0" /><line stroke="rgb(0%,0%,0%)" x1="98.0" x2="97.0" y1="1105.0" y2="1105.0" /><line stroke="rgb(0%,0%,0%)" x1="97.0" x2="96.0" y1="1105.0" y2="1104.0" /><line stroke="rgb(0%,0%,0%)" x1="96.0" x2="96.0" y1="1104.0" y2="1091.0" /><line stroke="rgb(0%,0%,0%)" x1="96.0" x2="95.0" y1="1091.0" y2="1090.0" /><line stroke="rgb(0%,0%,0%)" x1="95.0" x2="95.0" y1="1090.0" y2="944.0" /><line stroke="rgb(0%,0%,0%)" x1="95.0" x2="96.0" y1="944.0" y2="943.0" /><line stroke="rgb(0%,0%,0%)" x1="96.0" x2="126.0" y1="943.0" y2="943.0" /><line stroke="rgb(0%,0%,0%)" x1="126.0" x2="127.0" y1="943.0" y2="944.0" /><line stroke="rgb(0%,0%,0%)" x1="127.0" x2="127.0" y1="944.0" y2="945.0" /><line stroke="rgb(0%,0%,0%)" x1="127.0" x2="139.0" y1="945.0" y2="945.0" /><line stroke="rgb(0%,0%,0%)" x1="139.0" x2="139.0" y1="943.0" y2="945.0" /><line stroke="rgb(0%,0%,0%)" x1="572.0" x2="573.0" y1="843.0" y2="842.0" /><line stroke="rgb(0%,0%,0%)" x1="573.0" x2="594.0" y1="842.0" y2="842.0" /><line stroke="rgb(0%,0%,0%)" x1="594.0" x2="595.0" y1="842.0" y2="843.0" /><line stroke="rgb(0%,0%,0%)" x1="595.0" x2="595.0" y1="843.0" y2="844.0" /><line stroke="rgb(0%,0%,0%)" x1="595.0" x2="667.0" y1="844.0" y2="844.0" /><line stroke="rgb(0%,0%,0%)" x1="667.0" x2="668.0" y1="844.0" y2="843.0" /><line stroke="rgb(0%,0%,0%)" x1="668.0" x2="709.0" y1="843.0" y2="843.0" /><line stroke="rgb(0%,0%,0%)" x1="709.0" x2="710.0" y1="843.0" y2="844.0" /><line stroke="rgb(0%,0%,0%)" x1="710.0" x2="710.0" y1="844.0" y2="970.0" /><line stroke="rgb(0%,0%,0%)" x1="710.0" x2="711.0" y1="970.0" y2="971.0" /><line stroke="rgb(0%,0%,0%)" x1="711.0" x2="711.0" y1="971.0" y2="978.0" /><line stroke="rgb(0%,0%,0%)" x1="711.0" x2="710.0" y1="978.0" y2="979.0" /><line stroke="rgb(0%,0%,0%)" x1="710.0" x2="708.0" y1="979.0" y2="979.0" /><line stroke="rgb(0%,0%,0%)" x1="708.0" x2="708.0" y1="979.0" y2="1000.0" /><line stroke="rgb(0%,0%,0%)" x1="708.0" x2="707.0" y1="1000.0" y2="1001.0" /><line stroke="rgb(0%,0%,0%)" x1="707.0" x2="676.0" y1="1001.0" y2="1001.0" /><line stroke="rgb(0%,0%,0%)" x1="676.0" x2="675.0" y1="1001.0" y2="1002.0" /><line stroke="rgb(0%,0%,0%)" x1="675.0" x2="614.0" y1="1002.0" y2="1002.0" /><line stroke="rgb(0%,0%,0%)" x1="614.0" x2="613.0" y1="1002.0" y2="1003.0" /><line stroke="rgb(0%,0%,0%)" x1="613.0" x2="598.0" y1="1003.0" y2="1003.0" /><line stroke="rgb(0%,0%,0%)" x1="598.0" x2="597.0" y1="1003.0" y2="1002.0" /><line stroke="rgb(0%,0%,0%)" x1="597.0" x2="597.0" y1="1002.0" y2="1000.0" /><line stroke="rgb(0%,0%,0%)" x1="597.0" x2="571.0" y1="1000.0" y2="1000.0" /><line stroke="rgb(0%,0%,0%)" x1="571.0" x2="570.0" y1="1000.0" y2="999.0" /><line stroke="rgb(0%,0%,0%)" x1="570.0" x2="570.0" y1="999.0" y2="948.0" /><line stroke="rgb(0%,0%,0%)" x1="570.0" x2="571.0" y1="948.0" y2="947.0" /><line stroke="rgb(0%,0%,0%)" x1="571.0" x2="572.0" y1="947.0" y2="947.0" /><line stroke="rgb(0%,0%,0%)" x1="572.0" x2="572.0" y1="947.0" y2="921.0" /><line stroke="rgb(0%,0%,0%)" x1="572.0" x2="571.0" y1="921.0" y2="921.0" /><line stroke="rgb(0%,0%,0%)" x1="571.0" x2="570.0" y1="921.0" y2="920.0" /><line stroke="rgb(0%,0%,0%)" x1="570.0" x2="571.0" y1="920.0" y2="919.0" /><line stroke="rgb(0%,0%,0%)" x1="571.0" x2="572.0" y1="919.0" y2="919.0" /><line stroke="rgb(0%,0%,0%)" x1="572.0" x2="572.0" y1="843.0" y2="919.0" /></svg>