<svg width="64,004" height="63,791" fill="none" stroke="#000" stroke-width="0.1" xmlns="http://www.w3.org/2000/svg">
  <path d="M59,224 35,793 A27,5 27,5 0 0 0 59,44 33,742 L60,171 33,791 C60,281 33,793 60,614 33,785 61,169 33,67 61,833 33,532 62,794 33,241 63,996 32,632 A32,002 32,002 0 0 0 63,996 31,159 C62,794 30,55 61,833 
30,259 61,169 30,12 60,614 30,005 60,281 29,998 60,171 29,999 L59,44 30,048 A27,5 27,5 0 0 0 59,224 27,997 L59,949 27,893 C60,058 27,872 60,382 27,795 60,901 27,567 61,521 27,294 62,401 26,809 63,45 
25,964 A32,002 32,002 0 0 0 63,143 24,523 C61,842 24,177 60,84 24,092 60,163 24,095 59,596 24,098 59,269 24,16 59,161 24,184 L58,456 24,384 A27,5 27,5 0 0 0 57,819 22,423 L58,507 22,17 C58,608 22,127 
58,909 21,984 59,37 21,653 59,919 21,257 60,679 20,6 61,529 19,555 A32,002 32,002 0 0 0 60,93 18,209 C59,585 18,142 58,588 18,267 57,926 18,41 57,372 18,531 57,064 18,66 56,964 18,706 L56,317 19,048 A
27,5 27,5 0 0 0 55,285 17,262 L55,905 16,872 C55,996 16,808 56,261 16,607 56,642 16,187 57,097 15,685 57,704 14,884 58,318 13,686 A32,002 32,002 0 0 0 57,452 12,494 C56,123 12,708 55,173 13,037 
54,556 13,315 54,039 13,548 53,765 13,738 53,676 13,804 L53,114 14,273 A27,5 27,5 0 0 0 51,734 12,741 L52,26 12,231 C52,335 12,15 52,552 11,897 52,838 11,407 53,179 10,822 53,606 9,912 53,957 8,612 A
32,002 32,002 0 0 0 52,862 7,626 C51,606 8,112 50,746 8,632 50,2 9,032 49,743 9,368 49,514 9,61 49,441 9,693 L48,989 10,269 A27,5 27,5 0 0 0 47,32 9,057 L47,728 8,449 C47,785 8,354 47,945 8,062 
48,123 7,523 48,335 6,88 48,563 5,901 48,637 4,556 A32,002 32,002 0 0 0 47,361 3,82 C46,233 4,556 45,5 5,243 45,049 5,748 44,671 6,172 44,498 6,456 44,444 6,552 L44,121 7,21 A27,5 27,5 0 0 0 42,237 
6,371 L42,51 5,691 C42,545 5,587 42,641 5,268 42,703 4,704 42,777 4,03 42,797 3,026 42,589 1,695 A32,002 32,002 0 0 0 41,188 1,24 C40,238 2,195 39,664 3,019 39,327 3,607 39,046 4,1 38,936 4,414 
38,903 4,519 L38,724 5,23 A27,5 27,5 0 0 0 36,707 4,801 L36,832 4,079 C36,845 3,969 36,872 3,638 36,816 3,073 36,748 2,399 36,559 1,412 36,079 0,154 A32,002 32,002 0 0 0 34,614 0 C33,883 1,131 33,492 
2,057 33,286 2,702 33,113 3,242 33,071 3,573 33,061 3,683 L33,033 4,415 A27,5 27,5 0 0 0 30,971 4,415 L30,943 3,683 C30,933 3,573 30,891 3,242 30,718 2,702 30,512 2,057 30,121 1,131 29,39 0 A32,002 
32,002 0 0 0 27,925 0,154 C27,445 1,412 27,256 2,399 27,188 3,073 27,132 3,638 27,159 3,969 27,172 4,079 L27,297 4,801 A27,5 27,5 0 0 0 25,28 5,23 L25,101 4,519 C25,068 4,414 24,958 4,1 24,677 3,607 
24,34 3,019 23,766 2,195 22,816 1,24 A32,002 32,002 0 0 0 21,415 1,695 C21,207 3,026 21,227 4,03 21,301 4,704 21,363 5,268 21,459 5,587 21,494 5,691 L21,767 6,371 A27,5 27,5 0 0 0 19,883 7,21 L19,56 
6,552 C19,506 6,456 19,333 6,172 18,956 5,748 18,504 5,243 17,771 4,556 16,643 3,82 A32,002 32,002 0 0 0 15,367 4,556 C15,441 5,901 15,669 6,88 15,881 7,523 16,059 8,062 16,219 8,354 16,276 8,449 L
16,684 9,057 A27,5 27,5 0 0 0 15,015 10,269 L14,563 9,693 C14,49 9,61 14,261 9,368 13,804 9,032 13,258 8,632 12,398 8,112 11,142 7,626 A32,002 32,002 0 0 0 10,047 8,612 C10,398 9,912 10,825 10,822 
11,166 11,407 11,452 11,897 11,669 12,15 11,744 12,231 L12,27 12,741 A27,5 27,5 0 0 0 10,89 14,273 L10,328 13,804 C10,239 13,738 9,965 13,548 9,448 13,315 8,831 13,037 7,881 12,708 6,552 12,494 A
32,002 32,002 0 0 0 5,686 13,686 C6,3 14,884 6,907 15,685 7,362 16,187 7,743 16,607 8,008 16,808 8,099 16,872 L8,719 17,262 A27,5 27,5 0 0 0 7,687 19,048 L7,04 18,706 C6,94 18,66 6,632 18,531 6,078 
18,41 5,416 18,267 4,419 18,142 3,074 18,209 A32,002 32,002 0 0 0 2,475 19,555 C3,325 20,6 4,085 21,257 4,635 21,653 5,095 21,984 5,396 22,127 5,497 22,17 L6,185 22,423 A27,5 27,5 0 0 0 5,548 24,384 L
4,843 24,184 C4,735 24,16 4,408 24,098 3,841 24,095 3,164 24,092 2,162 24,177 0,861 24,523 A32,002 32,002 0 0 0 0,554 25,964 C1,603 26,809 2,483 27,294 3,103 27,567 3,622 27,795 3,946 27,872 4,055 
27,893 L4,78 27,997 A27,5 27,5 0 0 0 4,564 30,048 L3,833 29,999 C3,723 29,998 3,39 30,005 2,835 30,12 2,171 30,259 1,21 30,55 0,008 31,159 A32,002 32,002 0 0 0 0,008 32,632 C1,21 33,241 2,171 33,532 
2,835 33,67 3,39 33,785 3,723 33,793 3,833 33,791 L4,564 33,742 A27,5 27,5 0 0 0 4,78 35,793 L4,055 35,897 C3,946 35,919 3,622 35,995 3,103 36,223 2,483 36,497 1,603 36,981 0,554 37,826 A32,002 
32,002 0 0 0 0,861 39,268 C2,162 39,613 3,164 39,698 3,841 39,696 4,408 39,693 4,735 39,631 4,843 39,607 L5,548 39,407 A27,5 27,5 0 0 0 6,185 41,368 L5,497 41,62 C5,396 41,664 5,095 41,806 4,635 
42,137 4,085 42,533 3,325 43,191 2,475 44,235 A32,002 32,002 0 0 0 3,074 45,581 C4,419 45,649 5,416 45,524 6,078 45,38 6,632 45,259 6,94 45,131 7,04 45,085 L7,687 44,743 A27,5 27,5 0 0 0 8,719 46,529 L
8,099 46,918 C8,008 46,982 7,743 47,184 7,362 47,603 6,907 48,105 6,3 48,906 5,686 50,105 A32,002 32,002 0 0 0 6,552 51,297 C7,881 51,083 8,831 50,753 9,448 50,475 9,965 50,242 10,239 50,053 10,328 
49,986 L10,89 49,517 A27,5 27,5 0 0 0 12,27 51,05 L11,744 51,56 C11,669 51,641 11,452 51,894 11,166 52,383 10,825 52,969 10,398 53,878 10,047 55,178 A32,002 32,002 0 0 0 11,142 56,164 C12,398 55,678 
13,258 55,159 13,804 54,758 14,261 54,423 14,49 54,181 14,563 54,097 L15,015 53,521 A27,5 27,5 0 0 0 16,684 54,734 L16,276 55,342 C16,219 55,437 16,059 55,729 15,881 56,267 15,669 56,911 15,441 
57,889 15,367 59,234 A32,002 32,002 0 0 0 16,643 59,971 C17,771 59,235 18,504 58,548 18,956 58,042 19,333 57,619 19,506 57,335 19,56 57,238 L19,883 56,581 A27,5 27,5 0 0 0 21,767 57,42 L21,494 58,099 C
21,459 58,204 21,363 58,523 21,301 59,086 21,227 59,76 21,207 60,765 21,415 62,095 A32,002 32,002 0 0 0 22,816 62,551 C23,766 61,596 24,34 60,772 24,677 60,183 24,958 59,691 25,068 59,377 25,101 
59,271 L25,28 58,561 A27,5 27,5 0 0 0 27,297 58,99 L27,172 59,711 C27,159 59,821 27,132 60,153 27,188 60,717 27,256 61,391 27,445 62,378 27,925 63,637 A32,002 32,002 0 0 0 29,39 63,791 C30,121 62,659 
30,512 61,734 30,718 61,088 30,891 60,548 30,933 60,218 30,943 60,108 L30,971 59,376 A27,5 27,5 0 0 0 33,033 59,376 L33,061 60,108 C33,071 60,218 33,113 60,548 33,286 61,088 33,492 61,734 33,883 
62,659 34,614 63,791 A32,002 32,002 0 0 0 36,079 63,637 C36,559 62,378 36,748 61,391 36,816 60,717 36,872 60,153 36,845 59,821 36,832 59,711 L36,707 58,99 A27,5 27,5 0 0 0 38,724 58,561 L38,903 
59,271 C38,936 59,377 39,046 59,691 39,327 60,183 39,664 60,772 40,238 61,596 41,188 62,551 A32,002 32,002 0 0 0 42,589 62,095 C42,797 60,765 42,777 59,76 42,703 59,086 42,641 58,523 42,545 58,204 
42,51 58,099 L42,237 57,42 A27,5 27,5 0 0 0 44,121 56,581 L44,444 57,238 C44,498 57,335 44,671 57,619 45,049 58,042 45,5 58,548 46,233 59,235 47,361 59,971 A32,002 32,002 0 0 0 48,637 59,234 C48,563 
57,889 48,335 56,911 48,123 56,267 47,945 55,729 47,785 55,437 47,728 55,342 L47,32 54,734 A27,5 27,5 0 0 0 48,989 53,521 L49,441 54,097 C49,514 54,181 49,743 54,423 50,2 54,758 50,746 55,159 51,606 
55,678 52,862 56,164 A32,002 32,002 0 0 0 53,957 55,178 C53,606 53,878 53,179 52,969 52,838 52,383 52,552 51,894 52,335 51,641 52,26 51,56 L51,734 51,05 A27,5 27,5 0 0 0 53,114 49,517 L53,676 49,986 C
53,765 50,053 54,039 50,242 54,556 50,475 55,173 50,753 56,123 51,083 57,452 51,297 A32,002 32,002 0 0 0 58,318 50,105 C57,704 48,906 57,097 48,105 56,642 47,603 56,261 47,184 55,996 46,982 55,905 
46,918 L55,285 46,529 A27,5 27,5 0 0 0 56,317 44,743 L56,964 45,085 C57,064 45,131 57,372 45,259 57,926 45,38 58,588 45,524 59,585 45,649 60,93 45,581 A32,002 32,002 0 0 0 61,529 44,235 C60,679 
43,191 59,919 42,533 59,37 42,137 58,909 41,806 58,608 41,664 58,507 41,62 L57,819 41,368 A27,5 27,5 0 0 0 58,456 39,407 L59,161 39,607 C59,269 39,631 59,596 39,693 60,163 39,696 60,84 39,698 61,842 
39,613 63,143 39,268 A32,002 32,002 0 0 0 63,45 37,826 C62,401 36,981 61,521 36,497 60,901 36,223 60,382 35,995 60,058 35,919 59,949 35,897 L59,224 35,793 Z" />
</svg>