<?xml version="1.0" encoding="UTF-8" standalone="no"?>
<!-- Created with Inkscape (http://www.inkscape.org/) -->

<svg
   width="210mm"
   height="297mm"
   viewBox="0 0 210 297"
   version="1.1"
   id="svg16215"
   inkscape:version="1.1 (c68e22c387, 2021-05-23)"
   sodipodi:docname="mountingplate.svg"
   xmlns:inkscape="http://www.inkscape.org/namespaces/inkscape"
   xmlns:sodipodi="http://sodipodi.sourceforge.net/DTD/sodipodi-0.dtd"
   xmlns="http://www.w3.org/2000/svg"
   xmlns:svg="http://www.w3.org/2000/svg">
  <sodipodi:namedview
     id="namedview16217"
     pagecolor="#ffffff"
     bordercolor="#666666"
     borderopacity="1.0"
     inkscape:pageshadow="2"
     inkscape:pageopacity="0.0"
     inkscape:pagecheckerboard="0"
     inkscape:document-units="mm"
     showgrid="false"
     inkscape:zoom="0.74118967"
     inkscape:cx="331.22426"
     inkscape:cy="476.93595"
     inkscape:window-width="1920"
     inkscape:window-height="1017"
     inkscape:window-x="-8"
     inkscape:window-y="-8"
     inkscape:window-maximized="1"
     inkscape:current-layer="g16347" />
  <defs
     id="defs16212">
    <marker
       id="DistanceX"
       orient="auto"
       refX="0.0"
       refY="0.0"
       style="overflow:visible">
      <path
         d="M 3,-3 L -3,3 M 0,-5 L  0,5"
         style="stroke:#000000; stroke-width:0.5"
         id="path16284" />
    </marker>
    <pattern
       id="Hatch"
       patternUnits="userSpaceOnUse"
       width="8"
       height="8"
       x="0"
       y="0">
      <path
         d="M8 4 l-4,4"
         stroke="#000000"
         stroke-width="0.25"
         linecap="square"
         id="path16287" />
      <path
         d="M6 2 l-4,4"
         stroke="#000000"
         stroke-width="0.25"
         linecap="square"
         id="path16289" />
      <path
         d="M4 0 l-4,4"
         stroke="#000000"
         stroke-width="0.25"
         linecap="square"
         id="path16291" />
    </pattern>
    <symbol
       id="*Model_Space" />
    <symbol
       id="*Paper_Space" />
    <symbol
       id="*Paper_Space0" />
  </defs>
  <g
     inkscape:label="Lag 1"
     inkscape:groupmode="layer"
     id="layer1">
    <g
       inkscape:label="0"
       id="g16347"
       transform="matrix(0.26458333,0,0,0.26458333,35.304091,-174.49033)">
      <path
         d="m 576.37795,1122.5197 a 9.448819,9.448819 0 1 0 -18.89763,0 9.448819,9.448819 0 1 0 18.89763,0 z"
         style="fill:none;stroke:#000000;stroke-width:0.9;stroke-linecap:round"
         id="path16299" />
      <path
         d="m 9.448819,933.54331 a 9.448819,9.448819 0 1 0 -18.897638,0 9.448819,9.448819 0 1 0 18.897638,0 z"
         style="fill:none;stroke:#000000;stroke-width:0.9;stroke-linecap:round"
         id="path16301" />
      <path
         d="m 576.37795,933.54331 a 9.448819,9.448819 0 1 0 -18.89763,0 9.448819,9.448819 0 1 0 18.89763,0 z"
         style="fill:none;stroke:#000000;stroke-width:0.9;stroke-linecap:round"
         id="path16303" />
      <path
         d="m 9.448819,1122.5197 a 9.448819,9.448819 0 1 0 -18.897638,0 9.448819,9.448819 0 1 0 18.897638,0 z"
         style="fill:none;stroke:#000000;stroke-width:0.9;stroke-linecap:round"
         id="path16305" />
      <path
         style="fill:none;stroke:#000000;stroke-width:0.9;stroke-linecap:round"
         d="m 124.724,1089.82 v -37.8"
         id="path16307" />
      <path
         style="fill:none;stroke:#000000;stroke-width:0.9;stroke-linecap:round"
         d="m 102.047,1089.82 v -37.8"
         id="path16309" />
      <path
         style="fill:none;stroke:#000000;stroke-width:0.9;stroke-linecap:round"
         d="m 442.205,1089.82 v -37.8"
         id="path16311" />
      <path
         style="fill:none;stroke:#000000;stroke-width:0.9;stroke-linecap:round"
         d="m 464.882,1089.82 v -37.8"
         id="path16313" />
      <path
         style="fill:none;stroke:#000000;stroke-width:0.9;stroke-linecap:round"
         d="M 604.724,1141.42 V 914.646"
         id="path16315" />
      <path
         style="fill:none;stroke:#000000;stroke-width:0.9;stroke-linecap:round"
         d="M -18.8976,1160.31 H 585.827"
         id="path16317" />
      <path
         style="fill:none;stroke:#000000;stroke-width:0.9;stroke-linecap:round"
         d="M -37.7953,1141.42 V 914.646"
         id="path16319" />
      <path
         style="fill:none;stroke:#000000;stroke-width:0.9;stroke-linecap:round"
         d="M -18.8976,895.748 H 585.827"
         id="path16321" />
      <path
         d="m 124.72441,1052.0233 a 11.338585,11.338585 0 0 0 -22.67717,0"
         style="fill:none;stroke:#000000;stroke-width:0.9;stroke-linecap:round"
         id="path16323" />
      <path
         d="m 102.04724,1089.8186 a 11.338585,11.338585 0 0 0 22.67717,0"
         style="fill:none;stroke:#000000;stroke-width:0.9;stroke-linecap:round"
         id="path16325" />
      <path
         d="m 464.88189,1052.0233 a 11.338585,11.338585 0 0 0 -22.67717,0"
         style="fill:none;stroke:#000000;stroke-width:0.9;stroke-linecap:round"
         id="path16327" />
      <path
         d="m 442.20472,1089.8186 a 11.338585,11.338585 0 0 0 22.67717,0"
         style="fill:none;stroke:#000000;stroke-width:0.9;stroke-linecap:round"
         id="path16329" />
      <path
         d="M 604.72441,914.64567 A 18.897638,18.897638 0 0 0 585.82677,895.74803"
         style="fill:none;stroke:#000000;stroke-width:0.9;stroke-linecap:round"
         id="path16331" />
      <path
         d="m 585.82677,1160.315 a 18.897638,18.897638 0 0 0 18.89764,-18.8977"
         style="fill:none;stroke:#000000;stroke-width:0.9;stroke-linecap:round"
         id="path16333" />
      <path
         d="m -37.795276,1141.4173 a 18.897638,18.897638 0 0 0 18.897638,18.8977"
         style="fill:none;stroke:#000000;stroke-width:0.9;stroke-linecap:round"
         id="path16335" />
      <path
         d="m -18.897638,895.74803 a 18.897638,18.897638 0 0 0 -18.897638,18.89764"
         style="fill:none;stroke:#000000;stroke-width:0.9;stroke-linecap:round"
         id="path16337" />
    </g>
  </g>
</svg>
